#!OML:ASF X:\für Bonn\!DataBase\2005_08_10_Bjorn_Final\c3d\bjorn.ASF
:FULLY-SPECIFIED
:DEGREES
155
root 0.912077 18.4121 3.02247 -170.308 -1.19626 -180.916
lowerback 13.5539 1.14256 7.84746
upperback 12.0855 0.0323073 -0.0113881
thorax 5.4833 -0.298225 -4.49504
lowerneck -17.7534 -1.05197 2.34897
upperneck 7.17966 -1.73373 -2.49345
head 4.97533 -0.989123 -1.32368
rclavicle -1.94809e-014 -3.10104e-014
rhumerus 77.1743 -1.60524 -60.8337
rradius 17.0186
rwrist 31.844
rhand -12.718 10.5841
rfingers 7.12502
rthumb 13.365 -18.9673
lclavicle -1.94809e-014 -3.10104e-014
lhumerus 80.3498 -6.11983 62.4884
lradius 11.0703
lwrist -41.4181
lhand -29.3331 -8.18569
lfingers 7.12502
lthumb -2.6734 21.7773
rfemur -35.3566 -8.8249 16.6457
rtibia 55.1663
rfoot -21.1372 9.85721
rtoes -25.0221
lfemur -37.5292 2.71349 -21.5387
ltibia 59.2898
lfoot -14.8068 -6.31425
ltoes -16.8988
156
root 0.916827 18.5847 2.95223 -170.217 -1.31927 -180.849
lowerback 12.7273 1.10949 7.89016
upperback 11.8098 0.0606215 -0.0115032
thorax 5.61984 -0.233088 -4.51628
lowerneck -17.2067 -1.10685 2.28009
upperneck 7.33708 -1.77625 -2.37473
head 4.93879 -0.994005 -1.27442
rclavicle -1.94809e-014 -2.54444e-014
rhumerus 76.8253 -1.42539 -61.3859
rradius 16.9444
rwrist 32.2975
rhand -12.9 10.5472
rfingers 7.12502
rthumb 13.1895 -19.0156
lclavicle -1.94809e-014 -2.54444e-014
lhumerus 79.8945 -6.37378 62.5609
lradius 11.2402
lwrist -41.3206
lhand -29.2446 -8.39289
lfingers 7.12502
lthumb -2.5879 21.5712
rfemur -33.8958 -8.72709 16.6949
rtibia 52.7094
rfoot -20.1105 9.73477
rtoes -25.0851
lfemur -35.9477 2.82152 -21.3981
ltibia 56.6328
lfoot -14.1854 -6.59396
ltoes -16.0204
157
root 0.920916 18.7498 2.88158 -170.134 -1.43239 -180.78
lowerback 11.9087 1.06898 7.93421
upperback 11.5372 0.0726994 -0.0144325
thorax 5.7574 -0.177988 -4.5399
lowerneck -16.7699 -1.13956 2.20664
upperneck 7.584 -1.79099 -2.26327
head 4.94808 -0.987129 -1.22621
rclavicle -3.57812e-015 -3.97569e-015
rhumerus 76.4443 -1.19428 -61.6489
rradius 16.971
rwrist 32.3813
rhand -13.0282 10.5468
rfingers 7.12502
rthumb 13.0661 -19.024
lclavicle -3.57812e-015 -3.97569e-015
lhumerus 79.4803 -6.62035 62.1982
lradius 11.3972
lwrist -40.661
lhand -29.1777 -8.68299
lfingers 7.12502
lthumb -2.52331 21.2818
rfemur -32.4707 -8.62715 16.7312
rtibia 50.317
rfoot -19.0047 9.64657
rtoes -24.7825
lfemur -34.3811 2.93632 -21.264
ltibia 53.9981
lfoot -13.5082 -6.82283
ltoes -15.2961
158
root 0.925789 18.9092 2.80927 -170.023 -1.54621 -180.698
lowerback 11.1007 1.03353 8.0057
upperback 11.2102 0.106389 -0.027419
thorax 5.83613 -0.109425 -4.58975
lowerneck -16.2791 -1.19939 2.1551
upperneck 7.85313 -1.84494 -2.17564
head 4.954 -1.00083 -1.19213
rclavicle 6.36111e-015 1.59028e-014
rhumerus 75.9824 -0.958187 -62.0122
rradius 17.0173
rwrist 32.4339
rhand -13.0726 10.5865
rfingers 7.12502
rthumb 13.0232 -18.987
lclavicle 6.36111e-015 1.59028e-014
lhumerus 79.0593 -6.93801 61.8307
lradius 11.4961
lwrist -40.0414
lhand -29.1866 -8.95558
lfingers 7.12502
lthumb -2.53195 21.0091
rfemur -31.1379 -8.54882 16.7992
rtibia 48.005
rfoot -17.8289 9.50354
rtoes -24.4644
lfemur -32.8699 3.07736 -21.1152
ltibia 51.3956
lfoot -12.7721 -7.04791
ltoes -14.7862
159
root 0.93061 19.0596 2.7395 -169.924 -1.64949 -180.613
lowerback 10.349 0.987526 8.06485
upperback 10.8784 0.121749 -0.0359213
thorax 5.87897 -0.0556139 -4.62662
lowerneck -15.837 -1.23313 2.08732
upperneck 8.15168 -1.86618 -2.0744
head 4.97762 -0.999424 -1.14914
rclavicle -3.26007e-014 -1.90833e-014
rhumerus 75.5491 -0.681807 -62.407
rradius 17.0931
rwrist 32.4006
rhand -13.026 10.6334
rfingers 7.12502
rthumb 13.0682 -18.9372
lclavicle -3.26007e-014 -1.90833e-014
lhumerus 78.6646 -7.24132 61.1385
lradius 11.5764
lwrist -39.0783
lhand -29.2998 -9.1854
lfingers 7.12502
lthumb -2.6412 20.778
rfemur -29.8813 -8.50969 16.8815
rtibia 45.8036
rfoot -16.5855 9.32453
rtoes -24.1692
lfemur -31.3902 3.26596 -20.9705
ltibia 48.841
lfoot -11.9196 -7.31505
ltoes -14.1966
160
root 0.934729 19.2012 2.67038 -169.807 -1.74768 -180.493
lowerback 9.60609 0.947235 8.17526
upperback 10.5279 0.146248 -0.0363984
thorax 5.90319 0.0040885 -4.68383
lowerneck -15.4398 -1.29497 1.99702
upperneck 8.49577 -1.92226 -1.99332
head 5.02169 -1.01856 -1.11274
rclavicle -2.0276e-014 -7.95139e-015
rhumerus 75.1068 -0.39774 -62.7287
rradius 17.1874
rwrist 32.2418
rhand -12.9521 10.6937
rfingers 7.12502
rthumb 13.1394 -18.8723
lclavicle -2.0276e-014 -7.95139e-015
lhumerus 78.2694 -7.54597 60.5289
lradius 11.634
lwrist -38.3081
lhand -29.4562 -9.41669
lfingers 7.12502
lthumb -2.79225 20.5448
rfemur -28.7521 -8.53185 17.027
rtibia 43.7341
rfoot -15.3901 9.10588
rtoes -24.2351
lfemur -29.9826 3.45627 -20.7896
ltibia 46.3602
lfoot -11.0643 -7.54331
ltoes -13.8753
161
root 0.938817 19.3331 2.60268 -169.68 -1.84279 -180.391
lowerback 8.87435 0.915298 8.27654
upperback 10.1676 0.179108 -0.0493667
thorax 5.91424 0.0658952 -4.74928
lowerneck -14.9292 -1.35826 1.97877
upperneck 8.75997 -1.98992 -1.97693
head 5.02044 -1.04671 -1.10732
rclavicle -3.02153e-014 9.54166e-015
rhumerus 74.6459 -0.118922 -62.8657
rradius 17.3026
rwrist 31.8776
rhand -12.8392 10.7369
rfingers 7.12502
rthumb 13.2482 -18.8221
lclavicle -3.02153e-014 9.54166e-015
lhumerus 77.9345 -7.87981 59.7071
lradius 11.6865
lwrist -37.4025
lhand -29.6747 -9.56487
lfingers 7.12502
lthumb -3.0033 20.3937
rfemur -27.7495 -8.59628 17.1579
rtibia 41.8229
rfoot -14.324 8.94154
rtoes -24.5018
lfemur -28.647 3.68881 -20.6339
ltibia 43.9795
lfoot -10.1422 -7.82527
ltoes -13.5508
162
root 0.942477 19.4523 2.53996 -169.555 -1.93418 -180.273
lowerback 8.19338 0.874394 8.38314
upperback 9.80022 0.196556 -0.0503099
thorax 5.89008 0.115274 -4.8044
lowerneck -14.4051 -1.41646 1.94137
upperneck 9.01689 -2.04958 -1.96405
head 5.01462 -1.07307 -1.09896
rclavicle 1.66979e-014 3.10104e-014
rhumerus 74.1665 0.23761 -62.6234
rradius 17.541
rwrist 31.262
rhand -12.7239 10.6117
rfingers 7.12502
rthumb 13.3593 -18.94
lclavicle 1.66979e-014 3.10104e-014
lhumerus 77.6424 -8.16399 58.8972
lradius 11.6702
lwrist -36.6663
lhand -29.9526 -9.69198
lfingers 7.12502
lthumb -3.27166 20.2627
rfemur -26.8727 -8.72252 17.3115
rtibia 40.088
rfoot -13.4499 8.82774
rtoes -24.7628
lfemur -27.4237 3.9604 -20.473
ltibia 41.7542
lfoot -9.22808 -8.09188
ltoes -13.5082
